<?xml version="1.0" encoding="utf-8"?>
<!-- Generator: Adobe Illustrator 28.1.0, SVG Export Plug-In . SVG Version: 6.00 Build 0)  -->
<svg xmlns="http://www.w3.org/2000/svg" class="icon icon-tabler icon-tabler-cube" width="24" height="24" viewBox="0 0 24 24" stroke-width="1.4" stroke="#ffb300" fill="none" stroke-linecap="round" stroke-linejoin="round">
<path d="M4,5C2.9,5,2,5.9,2,7s0.9,2,2,2c1.1,0,2-0.9,2-2S5.1,5,4,5"/>
<path d="M20,5c-1.1,0-2,0.9-2,2s0.9,2,2,2c1.1,0,2-0.9,2-2S21.1,5,20,5"/>
<path d="M20,15c-1.1,0-2,0.9-2,2s0.9,2,2,2c1.1,0,2-0.9,2-2C22,15.9,21.1,15,20,15"/>
<path d="M15,7L6,7"/>
<path d="M8,7l0,8c0,1.1,0.9,2,2,2l5,0"/>
<path d="M12,14l3,3l-3,3"/>
<path d="M12,4l3,3l-3,3"/>
</svg>
