<svg xmlns="http://www.w3.org/2000/svg" class="icon icon-tabler icon-tabler-sun-filled" width="24" height="24" viewBox="0 0 24 24" stroke-width="2" stroke="currentColor" fill="none" stroke-linecap="round" stroke-linejoin="round">
    <defs>
        <linearGradient id="grad" x1="0%" y1="0%" x2="100%" y2="0%" gradientTransform="rotate(30)">
            <stop stop-color="#FFED28" offset="0"/>
            <stop stop-color="#FFA517" offset="1"/>
        </linearGradient>
    </defs>
    <path stroke="none" d="M0 0h24v24H0z" fill="none"/>
    <path d="M12 19a1 1 0 0 1 .993 .883l.007 .117v1a1 1 0 0 1 -1.993 .117l-.007 -.117v-1a1 1 0 0 1 1 -1z" stroke-width="0" fill="#FF9416" />
    <path d="M18.313 16.91l.094 .083l.7 .7a1 1 0 0 1 -1.32 1.497l-.094 -.083l-.7 -.7a1 1 0 0 1 1.218 -1.567l.102 .07z" stroke-width="0" fill="#FF9409" />
    <path d="M7.007 16.993a1 1 0 0 1 .083 1.32l-.083 .094l-.7 .7a1 1 0 0 1 -1.497 -1.32l.083 -.094l.7 -.7a1 1 0 0 1 1.414 0z" stroke-width="0" fill="#FFAE21" />
    <path d="M4 11a1 1 0 0 1 .117 1.993l-.117 .007h-1a1 1 0 0 1 -.117 -1.993l.117 -.007h1z" stroke-width="0" fill="#FFC324" />
    <path d="M21 11a1 1 0 0 1 .117 1.993l-.117 .007h-1a1 1 0 0 1 -.117 -1.993l.117 -.007h1z" stroke-width="0" fill="#FF9416" />
    <path d="M6.213 4.81l.094 .083l.7 .7a1 1 0 0 1 -1.32 1.497l-.094 -.083l-.7 -.7a1 1 0 0 1 1.217 -1.567l.102 .07z" stroke-width="0" fill="#FFD827" />
    <path d="M19.107 4.893a1 1 0 0 1 .083 1.32l-.083 .094l-.7 .7a1 1 0 0 1 -1.497 -1.32l.083 -.094l.7 -.7a1 1 0 0 1 1.414 0z" stroke-width="0" fill="#FFAE21" />
    <path d="M12 2a1 1 0 0 1 .993 .883l.007 .117v1a1 1 0 0 1 -1.993 .117l-.007 -.117v-1a1 1 0 0 1 1 -1z" stroke-width="0" fill="#FFC324" />
    <path d="M12 7a5 5 0 1 1 -4.995 5.217l-.005 -.217l.005 -.217a5 5 0 0 1 4.995 -4.783z" stroke-width="0" fill="url(#grad)" />
</svg>